<?xml version="1.0" encoding="utf-8"?>
<!-- Generator: Adobe Illustrator 16.0.0, SVG Export Plug-In . SVG Version: 6.00 Build 0)  -->
<!DOCTYPE svg PUBLIC "-//W3C//DTD SVG 1.1//EN" "http://www.w3.org/Graphics/SVG/1.1/DTD/svg11.dtd">
<svg version="1.1" id="图层_1" xmlns="http://www.w3.org/2000/svg" xmlns:xlink="http://www.w3.org/1999/xlink" x="0px" y="0px"
	 width="200px" height="200px" viewBox="0 0 200 200" enable-background="new 0 0 200 200" xml:space="preserve">
<g>
	<path fill="#FFFFFF" d="M106.563,94.287c-8.615-6.559-18.353,3.161-11.807,11.783l0,0
		C103.365,112.648,113.125,102.917,106.563,94.287z"/>
	<path fill="#FFFFFF" d="M174.429,72.579l-19.791-14.877L118.507,64.7l7.117-20.635L113.636,22.5l-22.779,9.702L78.851,66.99
		l-14.31-16.483l-24.675-0.398l-2.988,24.578l24.126,27.789l-21.429,4.152l-12.681,21.165l19.792,14.881l36.13-6.999l-7.12,20.634
		l11.99,21.568l22.779-9.702l12.005-34.787l14.312,16.483l24.673,0.396l2.989-24.577l-24.129-27.791l21.434-4.154L174.429,72.579z
		 M93.019,69.526c5.113-3.934,10.948,1.914,7.004,7.021C94.912,80.465,89.092,74.632,93.019,69.526z M71.584,93.709
		c-3.953-5.116,1.9-10.962,7.016-7.01C82.499,91.808,76.689,97.612,71.584,93.709z M82.726,120.85
		c-5.111,3.941-10.955-1.916-7.002-7.021C80.835,109.916,86.648,115.75,82.726,120.85z M108.313,130.835
		c-5.114,3.942-10.955-1.9-7.015-7.01C106.4,119.907,112.228,125.723,108.313,130.835z M117.961,96.444
		c-0.029,0.086-0.12,0.152-0.213,0.146l-2.946-0.057l-2.077,16.579c-0.015,0.092-0.082,0.166-0.177,0.184
		c-0.094,0.024-0.187-0.023-0.23-0.106l-1.421-2.583L95.5,117.094c-0.028,0.011-0.058,0.017-0.084,0.017
		c-0.063,0-0.122-0.026-0.167-0.072c-0.059-0.071-0.07-0.174-0.022-0.255l1.526-2.524L83.438,104.17
		c-0.076-0.057-0.106-0.157-0.076-0.245c0.03-0.087,0.117-0.138,0.213-0.145l2.946,0.056l2.077-16.577
		c0.014-0.093,0.082-0.168,0.177-0.185c0.092-0.024,0.185,0.024,0.229,0.106l1.422,2.583l15.396-6.488
		c0.085-0.035,0.188-0.014,0.25,0.061c0.059,0.07,0.067,0.173,0.021,0.251l-1.525,2.524L117.883,96.2
		C117.961,96.256,117.992,96.356,117.961,96.444z M118.597,86.533c-3.922-5.108,1.897-10.935,7.01-7.02
		C129.548,84.622,123.717,90.464,118.597,86.533z M129.747,113.688c-5.11,3.91-10.926-1.896-7.019-7.009
		C127.836,102.733,133.682,108.568,129.747,113.688z"/>
</g>
</svg>
